<svg viewBox="0 0 653 120"  xmlns="http://www.w3.org/2000/svg"><g fill="currentColor" fill-rule="nonzero"><path d="M64.02 94.26l24.85 12.43-24.85 12.42V94.26zM.72 34.45L57.41 62.8v56.31L.72 90.76V34.45zm88.3 44.15l28 14.01-24.46 12.23-28.01-14.01L89.02 78.6zm-25-12.5l21.3 10.65-21.3 10.65V66.1zM60.72.76l56.3 28.15-56.3 28.15L4.41 28.91 60.72.76zM647.17 34.83c5.37 4.23 5.64 9.25 5.64 16.65h-17.53c-.434-6.004-2.332-6.508-12.22-6.52h-4.87c-3.17 0-6.34-.09-8.9-.09h-.346l-.679-.001-.98-.001h-.631c-9.52.01-12.424.6-12.424 13.572 0 19.186 1.47 18.34 23.632 18.32h.678c1.585 0 3.056.014 4.412.016h.67c7.914-.012 11.748-.578 11.748-7.066 0-.7-.09-.88-.09-1.59h-22.63V56.94h40.26c-.35 26.96 1.76 33.83-23.96 33.83-3.79 0-7.66-.09-11.28-.09h-5.46c-26.07 0-35.94-1.06-35.94-25.02 0-3.61.26-9.87.7-18.41.35-7.58 6.34-14.36 13.3-15.24 7.05-.88 14.09-1.23 21.14-1.23h.665l1.312-.001 4.39-.005h1.787c14.079.01 22.837.329 27.606 4.056zm-397.21-3.44v30.83c0 13.45 1.49 14.078 16.406 14.092h1.503l1.59-.001 1.111-.001c1.489 0 2.866.009 4.139.01l.834.001c6.275-.007 9.896-.273 12.027-2.831 1.826-2.24 1.933-5.41 1.94-10.11V31.39h18.05v37c0 11.36-3.61 17.71-12.42 20.61-5.02 1.67-12.24 1.76-21.49 1.76h-1.735c-28.01.022-40.015.309-40.015-23.26V31.39h18.06zM217.9 52.08h-17.28v.01c-.231-6.426-2.285-6.855-13.66-6.872h-2.861l-1.799.002c-17.53 0-20.88-.62-20.88 13.04 0 17.35.62 17.71 20.44 17.71 2.233 0 4.225.02 5.997.023h.698c9.486-.014 12.35-.7 12.425-8.303h17.62c0 .97.09 1.59.09 2.55 0 12.07-2.82 18.24-12.24 19.29-7.58.79-14.45 1.23-20.09 1.23-9.07 0-17.79-.26-25.81-.79-12.42-.79-17.09-8.99-17.09-27.93v-1.672c.013-10.976.281-18.507 5.9-23.878 5.587-5.337 14.844-5.708 30.43-5.729h3.613c27.546.032 34.32 1.033 34.497 21.319zM543.42 31.5c14.54 0 19.64 5.02 19.64 18.59 0 14.18-4.67 15.24-12.69 17.62l.465.09.46.086c6.255 1.16 11.055 1.554 11.055 11.804v10.57h-18.06V82.5c0-5.11-1.5-7.4-7.75-7.4h-29.68v15.15H488.8V31.5h54.62zm-67.84 0v13.21h-47.83v10.22h44.66v11.63h-44.66v10.48h47.83v13.21h-65.54V31.5h65.54zm-99.31-.11c12.42 0 18.24 4.32 18.24 15.15 0 9.51-3.17 11.8-10.4 13.65 7.84 1.15 12.69 2.64 12.69 13.04 0 12.6-5.73 16.83-19.64 16.83h-56.3V31.39h55.41zm-5.1 34.71h-32.59v10.75h32.32c4.76 0 7.93-.53 7.93-5.73 0-4.05-2.38-5.02-7.66-5.02zm164.218-20.33H506.86v15.06h26.87c.88 0 1.41.09 2.29.09 8.37 0 9.07-1.59 9.07-8.19 0-6.247-2.223-6.94-9.702-6.96zM371.34 44.25h-32.77v10.22h30.66c4.67 0 7.31-.79 7.31-5.29 0-3.26-1.85-4.93-5.2-4.93z"/></g></svg>